<?xml version="1.0" encoding="utf-8"?>
<!-- Generator: Adobe Illustrator 19.1.0, SVG Export Plug-In . SVG Version: 6.00 Build 0)  -->
<svg version="1.1" id="Layer_1" xmlns="http://www.w3.org/2000/svg" xmlns:xlink="http://www.w3.org/1999/xlink" x="0px" y="0px"
	 viewBox="0 0 188 147" style="enable-background:new 0 0 188 147;" xml:space="preserve">
<style type="text/css">
	.st0{fill:#0A8CCC;}
	.st1{fill:#AD8864;}
	.st2{fill:#00C1EE;}
	.st3{fill:#C9A073;}
	.st4{fill:#E2B680;}
	.st5{fill:#FFD6A2;}
</style>
<path class="st0" d="M43.2,82.4c-0.2-0.2-0.5-0.3-0.7-0.5C42.7,82.2,42.9,82.4,43.2,82.4z"/>
<path class="st1" d="M144.3,75.6c-0.1-1.1-0.3-2.1-0.5-3.2c0.1-0.1,0.2-0.2,0.4-0.3c-10.6-7.5-22.6-15-35.8-22
	c-11.9-6.4-23.6-11.8-34.7-16.2c-1,0.4-2.1,0.9-3.1,1.4c11.1,4.5,23.1,10,35.3,16.5C120.2,59.5,133.2,67.7,144.3,75.6z"/>
<path class="st0" d="M123,113.9c-0.1,0-0.2-0.1-0.3-0.1C122.8,113.8,122.9,113.9,123,113.9z"/>
<path class="st0" d="M148.5,121.9c-0.1,0-0.1,0-0.2-0.1C148.4,121.9,148.5,121.9,148.5,121.9z"/>
<path class="st0" d="M144.6,120.9c0,0-0.1,0-0.1,0C144.5,120.9,144.6,120.9,144.6,120.9z"/>
<path class="st0" d="M127.5,115.6c-0.1,0-0.1,0-0.2-0.1C127.4,115.5,127.4,115.5,127.5,115.6z"/>
<path class="st2" d="M152.2,122.7c-1.2-0.2-2.4-0.5-3.6-0.8C149.8,122.2,151,122.5,152.2,122.7z"/>
<path class="st2" d="M148.3,121.8c-1.2-0.3-2.5-0.6-3.7-0.9C145.9,121.3,147.1,121.6,148.3,121.8z"/>
<path class="st2" d="M144.5,120.9c-5.3-1.4-11-3.2-17-5.3C133.5,117.7,139.2,119.5,144.5,120.9z"/>
<path class="st0" d="M29.4,60.1C29.4,60.1,29.3,60.1,29.4,60.1C29.3,60.1,29.4,60.1,29.4,60.1z"/>
<path class="st0" d="M41.9,25.8L41.9,25.8C41.9,25.8,41.9,25.8,41.9,25.8C41.9,25.8,41.9,25.8,41.9,25.8z"/>
<polygon class="st0" points="70.6,35.3 70.6,35.3 70.6,35.3 "/>
<polygon class="st0" points="56.3,79.9 56.3,79.9 56.3,79.9 "/>
<path class="st0" d="M52,77.1c0,0-0.1-0.1-0.1-0.1C51.9,77,52,77.1,52,77.1z"/>
<path class="st3" d="M105.9,51.9c-12.2-6.5-24.2-12.1-35.3-16.5c-1.8,1-3.6,2.2-5.2,3.6c11.9,4.7,25.2,10.8,38.9,18.1
	c15.1,8.1,28.8,16.6,40,24.6c0.2-2.1,0.2-4.1,0-6.1C133.2,67.7,120.2,59.5,105.9,51.9z"/>
<path class="st2" d="M51.9,77c-8.5-5.7-16.1-11.4-22.5-16.9C35.8,65.6,43.3,71.3,51.9,77z"/>
<path class="st2" d="M122.7,113.8c-1.5-0.6-3-1.2-4.6-1.8c0,0,0,0,0,0C119.7,112.6,121.2,113.2,122.7,113.8z"/>
<path class="st2" d="M56.3,79.9C54.8,79,53.4,78,52,77.1C53.4,78,54.8,79,56.3,79.9z"/>
<path class="st2" d="M144.3,75.6C144.3,75.6,144.3,75.6,144.3,75.6c0.1,0.1,0.2,0.1,0.3,0.2C144.5,75.7,144.4,75.7,144.3,75.6z"/>
<path class="st2" d="M127.3,115.5c-1.4-0.5-2.9-1.1-4.4-1.6C124.5,114.5,125.9,115,127.3,115.5z"/>
<circle class="st4" cx="99.1" cy="73.6" r="73.4"/>
<g>
	<path id="XMLID_7_" class="st5" d="M116.6,47.6l6.7,2.9l-30.9,71l-6.7-2.9L116.6,47.6z"/>
	<path id="XMLID_5_" class="st5" d="M99.5,40.2l6.7,2.9l-30.9,71l-6.7-2.9L99.5,40.2z"/>
	<path id="XMLID_3_" class="st5" d="M88.7,18.2l6.7,2.9L72,74.8l-6.7-2.9L88.7,18.2z"/>
	<path id="XMLID_1_" class="st5" d="M133.8,55.1l6.7,2.9l-17,39.1l-6.7-2.9L133.8,55.1z"/>
</g>
<path class="st1" d="M168.8,92.4c-0.3,1-0.6,2-0.9,2.9c10.2,10.3,14.9,19,12.1,24.2c-2.9,5.4-13.2,6.2-27.9,3.2
	c-9.7-2-21.3-5.6-34-10.7c-11.2-4.5-23.2-10.1-35.5-16.6c-9.4-5-18.2-10.2-26.3-15.5c-11.8-7.7-22.1-15.4-30-22.5
	C12.2,44.8,5.1,33.9,8.4,27.7c3.2-6,15.8-6.3,33.5-1.9c0.5-0.6,1-1.2,1.5-1.7C21.4,18.8,5.4,19.6,1,27.8c-4.6,8.7,5,23.7,23.7,40.1
	c4.1,3.6,8.6,7.3,13.5,10.9c1.4,1,2.8,2.1,4.2,3.1c0.2,0.2,0.5,0.3,0.7,0.5c0.8,0.6,1.7,1.2,2.6,1.8c6.1,4.2,12.6,8.4,19.5,12.6
	c4.5,2.7,9.1,5.3,13.9,7.8c5,2.7,9.9,5.1,14.8,7.5c18.1,8.6,35.3,14.9,49.9,18.4c22.1,5.4,38.2,4.6,42.6-3.6
	C190.6,119.2,183.5,106.6,168.8,92.4z"/>
<path class="st3" d="M168,95.3c-0.5,1.6-1.1,3.2-1.7,4.7c7,7.3,10.3,13.3,8.4,16.8c-1.9,3.6-9,4.2-19.4,2.2
	c-8.3-1.6-18.8-4.8-30.5-9.4c-11.9-4.7-25.2-10.8-38.8-18.1C74,85.2,63,78.6,53.5,72.2c-10.5-7-19.3-13.9-25.9-20
	C18,43.3,13.3,35.9,15.5,31.8c2.2-4,10.6-4.3,22.9-1.5c1.1-1.5,2.3-3,3.5-4.5c-17.7-4.4-30.2-4.1-33.5,1.9
	c-3.3,6.1,3.8,17.1,17.9,29.7c0,0,0,0,0,0c0,0,0.1,0.1,0.1,0.1c1,0.9,1.9,1.7,3,2.6c0,0,0.1,0,0.1,0.1c6.4,5.4,14,11.1,22.5,16.9
	c0,0,0.1,0.1,0.1,0.1c1.4,0.9,2.8,1.9,4.3,2.8c0,0,0,0,0,0c8.1,5.2,16.9,10.5,26.3,15.5c12.3,6.6,24.3,12.1,35.5,16.6l0,0
	c1.5,0.6,3.1,1.2,4.6,1.8c0.1,0,0.2,0.1,0.3,0.1c1.5,0.6,2.9,1.1,4.4,1.6c0.1,0,0.1,0,0.2,0.1c6,2.2,11.7,3.9,17,5.3
	c0,0,0.1,0,0.1,0c1.3,0.3,2.5,0.6,3.7,0.9c0.1,0,0.1,0,0.2,0.1c1.2,0.3,2.4,0.6,3.6,0.8l0,0c14.7,3,25.1,2.2,27.9-3.2
	C182.9,114.3,178.2,105.6,168,95.3z"/>
</svg>
